<?xml version="1.0" encoding="UTF-8" standalone="no"?><!-- Generator: Gravit.io --><svg xmlns="http://www.w3.org/2000/svg" xmlns:xlink="http://www.w3.org/1999/xlink" style="isolation:isolate" viewBox="0 0 100 100" width="100pt" height="100pt"><defs><clipPath id="_clipPath_xBLihGdHUoS0TVFxk27idLruKbV3g5nW"><rect width="100" height="100"/></clipPath></defs><g clip-path="url(#_clipPath_xBLihGdHUoS0TVFxk27idLruKbV3g5nW)"><g><linearGradient id="_lgradient_0" x1="0" y1="0.5" x2="1" y2="0.5" gradientTransform="matrix(95.843,0,0,45.26,0,26.36)" gradientUnits="userSpaceOnUse"><stop offset="0%" stop-opacity="1" style="stop-color:rgb(8,255,193)"/><stop offset="98.26086956521739%" stop-opacity="1" style="stop-color:rgb(0,128,213)"/></linearGradient><path d=" M 19.76 57.92 L 15.9 57.92 L 15.9 40.24 L 19.76 40.24 C 24.83 40.24 27.76 43.47 27.76 49.11 C 27.76 54.75 24.86 57.92 19.76 57.92 Z  M 74 42.09 L 74 41.09 C 73.357 41.281 72.732 41.525 72.13 41.82 C 72.759 41.827 73.386 41.901 74 42.04 M 31.77 57.57 L 30.7 59.07 L 31.08 54.83 C 31.438 51.998 32.835 49.4 35 47.54 C 34.7 47.54 34.38 47.62 34 47.69 L 30.2 48.48 L 33 45.73 C 34.025 44.827 35.169 44.07 36.4 43.48 L 36.81 43.26 C 35.467 39.256 32.614 35.934 28.86 34 C 26.246 32.655 23.35 31.945 20.41 31.93 L 20.41 31.93 L 13.5 31.93 C 8.03 31.93 5.44 31.86 3.5 31.42 C 2.407 31.106 1.369 30.627 0.42 30 L 0 29.76 L 0 30.26 C 0 30.42 0.39 34.12 4.82 37.36 C 5.68 37.97 6.28 38.58 6.28 40.76 L 6.28 60.6 C 6.28 62.72 5.86 63.31 4.87 63.91 C 3.88 64.51 1.61 65.84 1.61 65.84 L 0.84 66.29 L 18.84 66.29 C 23.84 66.29 27.02 65.44 30.43 63.16 C 30.898 62.851 31.348 62.517 31.78 62.16 C 31.555 60.652 31.555 59.118 31.78 57.61 M 66.2 58.09 C 66.415 57.764 66.46 57.355 66.32 56.99 L 65.2 53.9 L 68 55.56 C 68.265 55.721 68.513 55.908 68.74 56.12 L 70.42 56 C 71.642 55.885 72.873 56.053 74.02 56.49 L 74.02 47.79 C 73.543 47.934 73.093 48.157 72.69 48.45 L 71.98 49.09 L 71.21 48.51 C 70.621 48.109 69.922 47.903 69.21 47.92 C 67.924 47.919 66.697 48.46 65.83 49.41 C 65.33 49.99 64.83 50.59 64.46 51.18 L 64.46 58.07 C 65.14 58.59 65.85 58.58 66.22 58.07 M 87 34 C 84.386 32.655 81.49 31.945 78.55 31.93 L 78.55 31.93 L 71.61 31.93 C 66.14 31.93 63.55 31.86 61.61 31.42 C 60.517 31.106 59.479 30.627 58.53 30 L 58.11 29.72 L 58.11 30.22 C 58.11 30.38 58.5 34.08 62.93 37.32 C 63.79 37.93 64.39 38.54 64.39 40.72 L 64.39 42.15 C 65.39 41.54 66.444 41.024 67.54 40.61 C 67.071 41.033 66.645 41.502 66.27 42.01 C 67.273 41.371 68.402 40.954 69.58 40.79 C 71.035 40.53 72.525 40.53 73.98 40.79 L 73.98 40.25 L 77.84 40.25 C 82.9 40.25 85.84 43.48 85.84 49.12 C 85.84 54.76 82.93 57.93 77.84 57.93 L 76.37 57.93 C 77.731 59.137 78.519 60.862 78.54 62.68 C 78.532 63.977 78.119 65.239 77.36 66.29 C 82.17 66.29 85.24 65.39 88.56 63.17 C 89.957 62.245 91.202 61.108 92.25 59.8 C 94.62 56.702 95.884 52.9 95.84 49 C 95.96 42.732 92.541 36.931 87 34 Z  M 37.55 36.05 C 37.23 33.534 38.085 31.012 39.87 29.21 C 41.941 27.119 44.855 26.091 47.78 26.42 C 53.52 26.73 56.27 30.66 56.27 34.9 C 56.114 37.335 55.249 39.671 53.78 41.62 L 53.53 41.36 C 53.25 41.08 52.92 40.79 52.53 40.48 C 51.513 39.627 50.6 38.657 49.81 37.59 C 51.38 34.73 50.48 30.68 47.16 30.68 C 46.142 30.74 45.194 31.222 44.545 32.01 C 43.897 32.797 43.605 33.819 43.74 34.83 C 43.216 36.154 43.008 37.582 43.13 39 C 42.213 38.518 41.469 37.763 41 36.84 L 39.78 33.92 L 38.78 36.92 C 38.553 37.664 38.495 38.45 38.61 39.22 L 38.61 39.22 C 37.995 38.265 37.624 37.173 37.53 36.04 M 33.78 46.56 C 35.42 44.92 38.78 43.9 38.99 43.01 C 39.2 42.12 37.48 40.64 36.83 40.36 C 38.031 40.264 39.24 40.383 40.4 40.71 C 39.76 39.687 39.589 38.438 39.93 37.28 C 41.23 40.4 45.87 40.9 47.02 43.48 C 46.657 42.163 45.777 41.048 44.58 40.39 C 43.92 38.69 44.41 35.57 45.22 34.7 C 44.93 39.2 51.35 41.77 52.68 45.03 C 51.89 42.23 48.91 40.46 47.49 38.79 C 47.105 37.574 47.25 36.253 47.89 35.15 C 47.74 38.15 50.99 40.51 52.72 42.15 C 54.77 44.15 55.35 45.88 55.07 47.31 C 55.688 47.421 56.121 47.984 56.07 48.61 C 56.73 48.38 57.266 47.888 57.55 47.25 C 57.834 49.345 56.874 51.414 55.09 52.55 C 55.307 51.912 55.203 51.208 54.81 50.66 C 54.15 49.86 52.27 49.85 51.64 49.9 C 51.64 49.9 52.41 48.74 52.11 48.16 C 51.72 47.43 48.05 47.75 46.4 48.35 C 47.193 48.313 47.987 48.408 48.75 48.63 C 48.49 49.01 47.82 50.63 48.3 51.12 C 48.78 51.61 49.3 50.79 49.3 50.79 C 49.3 50.79 48.73 52.56 49.14 52.97 C 49.55 53.38 50.43 53.09 50.43 53.09 C 49.88 54.48 47.75 55.43 46.25 55.43 C 46.962 55.083 47.516 54.479 47.8 53.74 C 47.227 53.958 46.612 54.047 46 54 C 46.913 53.366 47.365 52.251 47.15 51.16 C 46.7 49.16 43.86 48.86 42.43 49.85 C 42.966 48.479 44.018 47.373 45.36 46.77 C 44.652 46.53 43.927 46.346 43.19 46.22 C 44.497 45.413 46.004 44.99 47.54 45 C 45.76 44.54 42.54 45.11 41.02 46.87 C 41.754 46.924 42.481 47.051 43.19 47.25 C 41.079 47.829 39.142 48.917 37.55 50.42 C 37.76 49.24 38.09 48.24 37.82 47.53 C 37.42 46.53 36.2 46.11 33.82 46.61 M 52.31 46.83 C 51.947 45.827 51.166 45.031 50.17 44.65 C 50.5 45.79 50.93 46.83 52.31 46.83 Z  M 77.38 62.67 C 77.38 59.37 74.18 56.81 70.53 57.15 C 71.899 57.439 72.909 58.604 73 60 C 73 62.58 69.78 63.38 68 63 C 69.89 61.69 69.64 57.92 67.37 56.58 C 68.14 58.69 65.83 60.79 63.59 58.95 C 62.34 57.95 59.46 55.52 58.17 54.48 C 56.88 53.44 55.37 54.05 54.78 53.6 C 54.19 53.15 54.54 51.6 53.61 51.1 C 52.84 50.65 52.07 50.9 51.17 50.6 C 50.354 50.423 49.791 49.673 49.85 48.84 C 49.451 49.619 49.549 50.56 50.1 51.24 C 50.72 51.95 51.74 52.39 52.17 53.17 C 52.72 54.17 51.79 55.59 54.23 57.51 C 55.4 58.42 57.23 59.92 58.39 60.96 C 60.39 62.71 59.32 64.88 59.58 66.78 C 59.842 68.568 61.124 70.038 62.86 70.54 C 61.617 69.216 61.617 67.154 62.86 65.83 C 63.032 68.441 64.818 70.666 67.33 71.4 C 70.57 72.26 74.02 70.4 74.74 69.13 C 73.141 69.556 71.435 69.184 70.16 68.13 C 73.96 68.67 77.33 66.02 77.33 62.64 M 57.61 61.78 C 56.61 60.89 55.08 59.63 53.94 58.72 C 52.64 60.94 49.87 63.84 47.07 63.84 C 41.91 63.84 39.32 56.54 45.07 50.56 C 44.817 50.482 44.554 50.441 44.29 50.44 C 43.832 50.429 43.38 50.55 42.99 50.79 L 40.8 52.39 L 41.32 49.5 C 41.368 49.329 41.428 49.162 41.5 49 C 40.367 49.543 39.324 50.258 38.41 51.12 L 36.17 53.57 L 36.41 50.12 L 36.56 49.35 C 36.702 48.867 36.762 48.363 36.74 47.86 C 36.703 47.784 36.643 47.722 36.57 47.68 C 35.51 48.5 32.57 51.09 32.24 54.9 C 32.498 54.499 32.839 54.158 33.24 53.9 C 33.57 53.78 33.85 53.9 33.54 54.9 C 33.42 55.27 30.6 62.9 36.15 68.19 C 36.15 68.19 35.54 66.64 35.91 66.19 C 36.09 65.96 36.32 65.94 36.64 66.35 C 36.96 66.76 37.13 66.97 37.4 67.27 L 37.4 67.27 C 37.888 67.804 38.424 68.293 39 68.73 C 40.896 70.072 43.157 70.805 45.48 70.83 C 52.35 70.83 55.98 66.09 58 62.12 C 57.91 62.02 57.81 61.91 57.7 61.81 M 69.48 45.25 C 64.37 45.5 59.96 49.85 57.71 52.92 C 58.152 53.059 58.565 53.276 58.93 53.56 L 60.85 55.13 C 61.899 52.789 63.272 50.608 64.93 48.65 C 66.681 46.615 69.655 46.165 71.93 47.59 C 73.06 46.59 76.93 45.59 78.93 46.2 C 77.171 44.294 74.739 43.147 72.15 43 C 69.74 43 68.38 44.18 68.03 43.65 C 67.68 43.12 69.66 42 69.66 42 C 66.82 42.12 64.75 45.47 63.89 45 C 63.38 44.75 64.66 43.14 64.66 43.14 C 62.193 44.681 60.342 47.038 59.43 49.8 C 61.82 46.87 66.43 44.8 69.48 45.21 M 70.34 58.21 C 71.184 58.411 71.803 59.135 71.87 60 C 71.871 60.57 71.56 61.096 71.06 61.37 C 70.801 61.528 70.522 61.649 70.23 61.73 C 70.393 61.168 70.468 60.585 70.45 60 C 70.45 58.91 70.34 58.31 70.34 58.31" fill-rule="evenodd" fill="url(#_lgradient_0)"/></g></g></svg>